# xmcd
#
# Track frame offsets:
#	150
#	18862
#	34205
#	51214
#	65577
#	79362
#	91712
#	110057
#	125452
#	141927
#	157382
#	168712
#
# Disc length: 2488 seconds
#
# Revision: 1
# Processed by: cddbd v1.5.2PL0 Copyright (c) Steve Scherf et al.
# Submitted via: audiograbber 1.83.01
#
DISCID=ab09b60c
DTITLE=REGINALDO ROSSI - MOMENTOS DE AMOR
DYEAR=1900
DGENRE=BREGA
TTITLE0=SAÍ DA TUA VIDA
TTITLE1=VOCÊ QUASE ACABA COMIGO
TTITLE2=CARNAVALITO
TTITLE3=CANSEI DE AMAR
TTITLE4=QUERO MATAR DE SAUDADE
TTITLE5=QUANDO A FESTA ACABAR
TTITLE6=MOMENTOS DE AMOR
TTITLE7=ME TIRA DA SOLIDÃO
TTITLE8=A COLHETA
TTITLE9=PEGAGANDO FOGO
TTITLE10=UMA HISTÓRIA TÃO LINDA
TTITLE11=NOS TEUS BRAÇOS
EXTD=
EXTT0=
EXTT1=
EXTT2=
EXTT3=
EXTT4=
EXTT5=
EXTT6=
EXTT7=
EXTT8=
EXTT9=
EXTT10=
EXTT11=
PLAYORDER=
